# xmcd CD database file
#
# Track frame offsets:
#	150
#	16500
#	29298
#	50434
#	70651
#	82251
#	104344
#	140706
#	148723
#	162476
#	174705
#	194841
#	221393
#	234921
#	250468
#	277327
#
# Disc length: 4061 seconds
#
# Revision: 0
# Processed by: cddbd v1.4PL0 Copyright (c) Steve Scherf et al.
# Submitted via: CDex 1.40Beta9
#
DISCID=f30fdb10
DTITLE=Monika Lynk - A Tribute To Billie Holiday
DYEAR=1998
DGENRE=Blues
TTITLE0=Them There Eyes
TTITLE1=Good Morning Heartache
TTITLE2=Ain't Nobody's Business If I Do
TTITLE3=East of The Sun
TTITLE4=Don't Explain
TTITLE5=Easy Living
TTITLE6=The Man I Love
TTITLE7=What a Little Moonlight Can do
TTITLE8=Body and Soul
TTITLE9=My Man
TTITLE10=Your Don't Know What Love is
TTITLE11=Fine and Mellow
TTITLE12=Lover Man
TTITLE13=Strange Fruit
TTITLE14=God Bless This Child
TTITLE15=C Jam Blues
EXTD=YEAR: 1998 ID3G: 0
EXTT0=
EXTT1=
EXTT2=
EXTT3=
EXTT4=
EXTT5=
EXTT6=
EXTT7=
EXTT8=
EXTT9=
EXTT10=
EXTT11=
EXTT12=
EXTT13=
EXTT14=
EXTT15=
PLAYORDER=
